<svg width="1097" height="390" viewBox="0 0 1097 390" fill="none" xmlns="http://www.w3.org/2000/svg">
<path fill-rule="evenodd" clip-rule="evenodd" d="M110 25C110 38.8071 98.8071 50 85 50C71.1929 50 60 38.8071 60 25C60 11.1929 71.1929 0 85 0C98.8071 0 110 11.1929 110 25ZM50 75C50 88.8071 38.8071 100 25 100C11.1929 100 0 88.8071 0 75C0 61.1929 11.1929 50 25 50C38.8071 50 50 61.1929 50 75ZM290 75C290 88.8071 278.807 100 265 100C251.193 100 240 88.8071 240 75C240 61.1929 251.193 50 265 50C278.807 50 290 61.1929 290 75ZM50 135C50 148.807 38.8071 160 25 160C11.1929 160 0 148.807 0 135C0 121.193 11.1929 110 25 110C38.8071 110 50 121.193 50 135ZM290 135C290 148.807 278.807 160 265 160C251.193 160 240 148.807 240 135C240 121.193 251.193 110 265 110C278.807 110 290 121.193 290 135ZM50 195C50 208.807 38.8071 220 25 220C11.1929 220 0 208.807 0 195C0 181.193 11.1929 170 25 170C38.8071 170 50 181.193 50 195ZM290 195C290 208.807 278.807 220 265 220C251.193 220 240 208.807 240 195C240 181.193 251.193 170 265 170C278.807 170 290 181.193 290 195ZM50 255C50 268.807 38.8071 280 25 280C11.1929 280 0 268.807 0 255C0 241.193 11.1929 230 25 230C38.8071 230 50 241.193 50 255ZM290 255C290 268.807 278.807 280 265 280C251.193 280 240 268.807 240 255C240 241.193 251.193 230 265 230C278.807 230 290 241.193 290 255ZM50 315C50 328.807 38.8071 340 25 340C11.1929 340 0 328.807 0 315C0 301.193 11.1929 290 25 290C38.8071 290 50 301.193 50 315ZM290 315C290 328.807 278.807 340 265 340C251.193 340 240 328.807 240 315C240 301.193 251.193 290 265 290C278.807 290 290 301.193 290 315ZM110 365C110 378.807 98.8071 390 85 390C71.1929 390 60 378.807 60 365C60 351.193 71.1929 340 85 340C98.8071 340 110 351.193 110 365ZM120 255C120 268.807 108.807 280 95 280C81.1929 280 70 268.807 70 255C70 241.193 81.1929 230 95 230C108.807 230 120 241.193 120 255ZM170 25C170 38.8071 158.807 50 145 50C131.193 50 120 38.8071 120 25C120 11.1929 131.193 0 145 0C158.807 0 170 11.1929 170 25ZM170 365C170 378.807 158.807 390 145 390C131.193 390 120 378.807 120 365C120 351.193 131.193 340 145 340C158.807 340 170 351.193 170 365ZM170 195C170 208.807 158.807 220 145 220C131.193 220 120 208.807 120 195C120 181.193 131.193 170 145 170C158.807 170 170 181.193 170 195ZM230 25C230 38.8071 218.807 50 205 50C191.193 50 180 38.8071 180 25C180 11.1929 191.193 0 205 0C218.807 0 230 11.1929 230 25ZM230 365C230 378.807 218.807 390 205 390C191.193 390 180 378.807 180 365C180 351.193 191.193 340 205 340C218.807 340 230 351.193 230 365ZM220 135C220 148.807 208.807 160 195 160C181.193 160 170 148.807 170 135C170 121.193 181.193 110 195 110C208.807 110 220 121.193 220 135ZM710.704 267.932V162.857H740.242V267.932H710.704ZM725.425 149.417C721.028 149.417 717.268 147.976 714.145 145.094C711.023 142.212 709.461 138.734 709.461 134.662C709.461 130.589 711.023 127.143 714.145 124.323C717.268 121.441 721.028 120 725.425 120C729.886 120 733.678 121.441 736.8 124.323C739.923 127.143 741.484 130.589 741.484 134.662C741.484 138.734 739.923 142.212 736.8 145.094C733.678 147.976 729.886 149.417 725.425 149.417ZM406.723 269.812C394.105 269.812 382.761 266.992 372.692 261.353C362.623 255.714 354.657 247.538 348.794 236.823C342.931 226.109 340 213.17 340 198.008C340 182.719 342.931 169.718 348.794 159.004C354.657 148.227 362.623 140.05 372.692 134.474C382.761 128.835 394.105 126.015 406.723 126.015C419.341 126.015 430.685 128.835 440.753 134.474C450.822 140.05 458.757 148.227 464.556 159.004C470.419 169.718 473.35 182.719 473.35 198.008C473.35 213.233 470.419 226.203 464.556 236.917C458.757 247.632 450.822 255.808 440.753 261.447C430.685 267.024 419.341 269.812 406.723 269.812ZM406.723 243.684C414.052 243.684 420.424 241.93 425.841 238.421C431.258 234.912 435.432 229.774 438.364 223.008C441.359 216.178 442.857 207.845 442.857 198.008C442.857 188.108 441.359 179.743 438.364 172.914C435.432 166.084 431.258 160.915 425.841 157.406C420.424 153.897 414.052 152.143 406.723 152.143C399.458 152.143 393.117 153.897 387.7 157.406C382.283 160.915 378.045 166.084 374.987 172.914C371.991 179.743 370.494 188.108 370.494 198.008C370.494 207.845 371.991 216.178 374.987 223.008C378.045 229.774 382.283 234.912 387.7 238.421C393.117 241.93 399.458 243.684 406.723 243.684ZM549.441 269.624C543.706 269.624 538.83 268.684 534.816 266.805C530.801 264.925 527.519 262.575 524.97 259.756C522.484 256.873 520.541 253.991 519.139 251.109H517.8V267.932H488.74V127.895H518.278V180.62H519.139C520.477 177.738 522.389 174.825 524.874 171.88C527.359 168.935 530.609 166.491 534.624 164.549C538.639 162.544 543.61 161.541 549.537 161.541C557.375 161.541 564.545 163.546 571.045 167.556C577.609 171.504 582.866 177.487 586.817 185.508C590.768 193.528 592.744 203.553 592.744 215.583C592.744 227.237 590.832 237.105 587.009 245.188C583.185 253.208 577.991 259.286 571.427 263.421C564.927 267.556 557.598 269.624 549.441 269.624ZM540.073 246.504C544.916 246.504 548.995 245.188 552.309 242.556C555.623 239.925 558.14 236.291 559.861 231.654C561.581 226.955 562.442 221.566 562.442 215.489C562.442 209.411 561.581 204.085 559.861 199.511C558.204 194.875 555.718 191.241 552.404 188.609C549.091 185.977 544.98 184.662 540.073 184.662C535.294 184.662 531.215 185.946 527.837 188.515C524.524 191.021 521.974 194.593 520.19 199.229C518.469 203.803 517.609 209.223 517.609 215.489C517.609 221.692 518.501 227.112 520.286 231.748C522.07 236.385 524.619 240.019 527.933 242.65C531.311 245.219 535.357 246.504 540.073 246.504ZM664.438 267.932L701.718 162.857H670.747L648.665 238.139H647.518L625.054 162.857H593.796L630.981 267.932H664.438ZM777.809 263.233C785.711 267.744 795.048 270 805.818 270C816.651 270 825.987 267.744 833.826 263.233C841.728 258.659 847.782 252.331 851.988 244.248C856.258 236.103 858.393 226.642 858.393 215.865C858.393 204.962 856.258 195.47 851.988 187.387C847.782 179.242 841.728 172.914 833.826 168.402C825.987 163.828 816.651 161.541 805.818 161.541C795.048 161.541 785.711 163.828 777.809 168.402C769.971 172.914 763.917 179.242 759.647 187.387C755.441 195.47 753.338 204.962 753.338 215.865C753.338 226.642 755.441 236.103 759.647 244.248C763.917 252.331 769.971 258.659 777.809 263.233ZM818.34 243.214C815.026 245.909 810.916 247.256 806.009 247.256C801.038 247.256 796.864 245.909 793.486 243.214C790.172 240.457 787.655 236.698 785.935 231.936C784.278 227.174 783.449 221.754 783.449 215.677C783.449 209.536 784.278 204.117 785.935 199.417C787.655 194.718 790.172 191.021 793.486 188.327C796.864 185.633 801.038 184.286 806.009 184.286C810.916 184.286 815.026 185.633 818.34 188.327C821.654 191.021 824.139 194.718 825.796 199.417C827.517 204.117 828.377 209.536 828.377 215.677C828.377 221.754 827.517 227.174 825.796 231.936C824.139 236.698 821.654 240.457 818.34 243.214ZM939.932 223.289V162.857H969.47V267.932H941.08V248.853H939.932C937.511 254.931 933.528 259.881 927.984 263.703C922.439 267.462 915.652 269.311 907.623 269.248C900.485 269.248 894.176 267.682 888.695 264.549C883.279 261.353 879.041 256.811 875.982 250.921C872.987 245.031 871.489 237.982 871.489 229.774V162.857H901.027V224.699C901.027 230.84 902.716 235.727 906.093 239.361C909.471 242.932 913.963 244.687 919.571 244.624C923.14 244.624 926.454 243.841 929.513 242.274C932.572 240.645 935.057 238.233 936.969 235.038C938.945 231.842 939.932 227.926 939.932 223.289ZM1048.62 194.436L1075.67 192.838C1074.4 183.189 1069.87 175.576 1062.1 170C1054.39 164.361 1043.78 161.541 1030.27 161.541C1021.15 161.541 1013.19 162.857 1006.37 165.489C999.613 168.12 994.356 171.88 990.596 176.767C986.836 181.654 984.956 187.481 984.956 194.248C984.956 202.08 987.505 208.503 992.603 213.515C997.702 218.528 1005.44 222.068 1015.83 224.135L1034.28 227.895C1043.46 229.712 1048.05 233.221 1048.05 238.421C1048.05 241.491 1046.42 244.029 1043.17 246.034C1039.98 248.039 1035.81 249.041 1030.65 249.041C1025.36 249.041 1021.03 247.945 1017.65 245.752C1014.27 243.559 1012.1 240.332 1011.15 236.071L982.184 237.575C983.586 247.538 988.461 255.432 996.809 261.259C1005.22 267.086 1016.5 270 1030.65 270C1039.89 270 1048.08 268.559 1055.22 265.677C1062.35 262.732 1067.96 258.69 1072.04 253.553C1076.12 248.352 1078.16 242.274 1078.16 235.32C1078.16 227.738 1075.61 221.629 1070.51 216.992C1065.41 212.356 1057.67 209.004 1047.28 206.936L1027.88 203.177C1022.97 202.174 1019.5 200.796 1017.46 199.041C1015.48 197.224 1014.49 195.063 1014.49 192.556C1014.49 189.424 1016.02 186.917 1019.08 185.038C1022.2 183.158 1026.06 182.218 1030.65 182.218C1035.81 182.218 1039.92 183.44 1042.98 185.883C1046.04 188.264 1047.92 191.115 1048.62 194.436Z" fill="#06252E"/>
</svg>
