<svg width="800" height="800" viewBox="0 0 800 800" fill="none" xmlns="http://www.w3.org/2000/svg">
<g clip-path="url(#clip0_363_24019)">
<circle cx="400" cy="400" r="400" fill="#06252E"/>
<path d="M365 230C365 243.807 353.807 255 340 255C326.193 255 315 243.807 315 230C315 216.193 326.193 205 340 205C353.807 205 365 216.193 365 230Z" fill="white"/>
<path d="M305 280C305 293.807 293.807 305 280 305C266.193 305 255 293.807 255 280C255 266.193 266.193 255 280 255C293.807 255 305 266.193 305 280Z" fill="white"/>
<path d="M520 305C533.807 305 545 293.807 545 280C545 266.193 533.807 255 520 255C506.193 255 495 266.193 495 280C495 293.807 506.193 305 520 305Z" fill="white"/>
<path d="M305 340C305 353.807 293.807 365 280 365C266.193 365 255 353.807 255 340C255 326.193 266.193 315 280 315C293.807 315 305 326.193 305 340Z" fill="white"/>
<path d="M520 365C533.807 365 545 353.807 545 340C545 326.193 533.807 315 520 315C506.193 315 495 326.193 495 340C495 353.807 506.193 365 520 365Z" fill="white"/>
<path d="M305 400C305 413.807 293.807 425 280 425C266.193 425 255 413.807 255 400C255 386.193 266.193 375 280 375C293.807 375 305 386.193 305 400Z" fill="white"/>
<path d="M520 425C533.807 425 545 413.807 545 400C545 386.193 533.807 375 520 375C506.193 375 495 386.193 495 400C495 413.807 506.193 425 520 425Z" fill="white"/>
<path d="M305 460C305 473.807 293.807 485 280 485C266.193 485 255 473.807 255 460C255 446.193 266.193 435 280 435C293.807 435 305 446.193 305 460Z" fill="white"/>
<path d="M520 485C533.807 485 545 473.807 545 460C545 446.193 533.807 435 520 435C506.193 435 495 446.193 495 460C495 473.807 506.193 485 520 485Z" fill="white"/>
<path d="M305 520C305 533.807 293.807 545 280 545C266.193 545 255 533.807 255 520C255 506.193 266.193 495 280 495C293.807 495 305 506.193 305 520Z" fill="white"/>
<path d="M520 545C533.807 545 545 533.807 545 520C545 506.193 533.807 495 520 495C506.193 495 495 506.193 495 520C495 533.807 506.193 545 520 545Z" fill="white"/>
<path d="M365 570C365 583.807 353.807 595 340 595C326.193 595 315 583.807 315 570C315 556.193 326.193 545 340 545C353.807 545 365 556.193 365 570Z" fill="white"/>
<path d="M350 485C363.807 485 375 473.807 375 460C375 446.193 363.807 435 350 435C336.193 435 325 446.193 325 460C325 473.807 336.193 485 350 485Z" fill="white"/>
<path d="M425 230C425 243.807 413.807 255 400 255C386.193 255 375 243.807 375 230C375 216.193 386.193 205 400 205C413.807 205 425 216.193 425 230Z" fill="white"/>
<path d="M400 595C413.807 595 425 583.807 425 570C425 556.193 413.807 545 400 545C386.193 545 375 556.193 375 570C375 583.807 386.193 595 400 595Z" fill="white"/>
<path d="M425 400C425 413.807 413.807 425 400 425C386.193 425 375 413.807 375 400C375 386.193 386.193 375 400 375C413.807 375 425 386.193 425 400Z" fill="white"/>
<path d="M460 255C473.807 255 485 243.807 485 230C485 216.193 473.807 205 460 205C446.193 205 435 216.193 435 230C435 243.807 446.193 255 460 255Z" fill="white"/>
<path d="M485 570C485 583.807 473.807 595 460 595C446.193 595 435 583.807 435 570C435 556.193 446.193 545 460 545C473.807 545 485 556.193 485 570Z" fill="white"/>
<path d="M450 365C463.807 365 475 353.807 475 340C475 326.193 463.807 315 450 315C436.193 315 425 326.193 425 340C425 353.807 436.193 365 450 365Z" fill="white"/>
</g>
<defs>
<clipPath id="clip0_363_24019">
<rect width="800" height="800" fill="white"/>
</clipPath>
</defs>
</svg>
